<svg xmlns="http://www.w3.org/2000/svg" width="135" height="19" fill="none" viewBox="0 0 135 19"><path fill="#fff" d="M13.5068 6.94271C14.1981 5.38375 13.9296 4.06936 13.5373 2.63526C13.2837 1.70776 13.1315 0.874778 13.0631 0.460546C13.0356 0.293261 12.9346 0.150303 12.7862 0.068275C12.5695 -0.0514302 12.298 -0.010739 12.1258 0.166881C11.6346 0.673906 10.4046 1.94136 9.59222 2.7597C9.30395 3.05014 8.50556 2.83398 8.17558 2.72763C7.91676 2.62665 7.4692 2.54764 6.9666 2.54957C6.464 2.54764 6.01644 2.62665 5.75762 2.72763C5.42764 2.83398 4.62925 3.05014 4.34098 2.7597C3.52861 1.94136 2.29856 0.673906 1.80736 0.166881C1.63517 -0.010739 1.36366 -0.0514302 1.14698 0.068275C0.998648 0.150303 0.897613 0.293261 0.870097 0.460546C0.801737 0.874778 0.64954 1.70776 0.395877 2.63526C0.00355979 4.06936 -0.264936 5.38375 0.426402 6.94271C0.419953 7.07254 0.373305 7.99831 0.313974 8.8763C0.294412 9.1691 0.300216 9.46449 0.329667 9.74739V9.7489C0.330527 9.75708 0.331601 9.76504 0.332461 9.77323C0.335686 9.80208 0.339125 9.83071 0.34278 9.85913C0.440161 10.6368 0.625678 11.1608 0.689739 11.431V12.2246C0.720049 12.799 0.81872 13.4522 0.923409 13.8098C0.923409 13.8098 0.924054 13.812 0.925344 13.8159C0.931578 13.8372 0.938457 13.8581 0.945551 13.8783C1.03713 14.15 1.41354 15.1694 2.1167 15.8455C2.74269 16.4474 3.65286 17.2826 4.29454 17.8516C4.49081 18.0258 4.66214 18.1752 4.79241 18.285C5.3481 18.7543 6.00763 19 6.9666 19C7.92557 19 8.5851 18.7543 9.14079 18.285C9.27106 18.1752 9.44239 18.0258 9.63866 17.8516C10.2803 17.2826 11.1905 16.4474 11.8165 15.8455C12.5197 15.1694 12.8961 14.15 12.9876 13.8783C12.9947 13.8581 13.0016 13.8372 13.0081 13.8159C13.0091 13.812 13.0098 13.8098 13.0098 13.8098C13.1145 13.4522 13.2132 12.799 13.2435 12.2246V11.431C13.2755 11.2958 13.3378 11.0973 13.4045 10.8353C13.4711 10.5733 13.5416 10.248 13.5904 9.85913C13.5941 9.83071 13.5975 9.80208 13.6007 9.77323C13.6016 9.76504 13.6027 9.75708 13.6035 9.7489V9.74739C13.633 9.46449 13.6388 9.1691 13.6192 8.8763C13.5599 7.99831 13.5132 7.07254 13.5068 6.94271ZM0.792064 11.7477C0.765623 11.7307 0.739396 11.7137 0.71446 11.6965C0.739396 11.7135 0.765408 11.7305 0.792064 11.7475V11.7477Z"/><path fill="#0027D3" d="M2.06648 14.9706C2.47105 14.9605 2.75051 14.4694 3.54998 14.6059C4.34945 14.7424 4.66437 15.5401 4.88708 16.1522C4.88708 16.1522 4.27872 15.4225 3.49989 15.2581C2.72106 15.0936 2.55038 15.8211 3.09897 16.4049C3.64757 16.9888 4.00421 17.4287 4.96683 17.3152C5.92946 17.2018 6.414 16.932 6.96647 16.932C5.43181 16.932 5.50017 17.2151 4.35289 17.0885C3.49817 16.994 3.13208 16.3414 3.03986 16.0491C2.99515 15.9076 3.13616 15.8299 3.32856 15.8211C3.43218 15.7358 3.63554 15.6561 3.98035 15.843C4.52916 16.1406 4.73725 16.6409 5.16246 16.6842C5.42773 16.7113 5.70181 16.6319 5.87035 16.5684C5.9602 16.4816 5.97117 16.4049 5.97117 16.4049C5.68117 16.5961 5.27617 16.5188 5.27617 16.5188C5.21727 16.2237 5.00402 15.4516 4.48359 14.9909C3.78838 14.3753 3.08242 14.3575 2.57811 14.5732C2.17569 14.7454 1.74037 14.7172 1.4779 14.4076C1.2539 14.1435 0.923065 13.81 0.923065 13.81C0.923065 13.81 1.47274 14.9857 2.06605 14.9708L2.06648 14.9706Z"/><path fill="#0027D3" d="M5.95743 18.817C5.30306 18.7145 4.73598 18.0811 4.51993 17.81C4.42277 17.8298 4.34731 17.8434 4.29486 17.852C4.49113 18.026 4.66246 18.1754 4.79273 18.2854C5.34864 18.7547 6.00794 19.0004 6.96692 19.0004V18.8781C6.96692 18.8781 6.44411 18.8932 5.95764 18.817H5.95743Z"/><path fill="#000" d="M5.16272 16.6846C4.73752 16.6414 4.52943 16.141 3.98061 15.8435C3.6358 15.6566 3.43244 15.7365 3.32883 15.8215C3.53391 15.812 3.79767 15.8805 3.95825 16.0342C4.26974 16.3318 4.58854 16.8481 5.18766 16.8024C5.57439 16.7729 5.77087 16.6648 5.8704 16.5688C5.70165 16.6323 5.42756 16.7118 5.16251 16.6846H5.16272Z"/><path fill="#000" d="M4.96735 17.3153C4.00472 17.4288 3.64809 16.989 3.09949 16.4051C2.55089 15.8212 2.72158 15.0937 3.50041 15.2582C4.27924 15.4227 4.8876 16.1523 4.8876 16.1523C4.66489 15.5402 4.34996 14.7425 3.55049 14.606C2.75103 14.4695 2.47178 14.9606 2.067 14.9708C1.47368 14.9856 0.924011 13.8099 0.924011 13.8099C0.924011 13.8099 1.29999 15.0597 2.1173 15.8455C2.74329 16.4475 3.65346 17.2826 4.29514 17.8516C4.3476 17.8428 4.42326 17.8293 4.52021 17.8097C4.59674 17.7942 4.68682 17.7748 4.78957 17.7509C4.94757 17.7141 5.13545 17.6667 5.35107 17.606C6.08153 17.4004 6.51985 17.1173 6.9672 17.1173V16.9323C6.41473 16.9323 5.93019 17.2021 4.96756 17.3156L4.96735 17.3153Z"/><path fill="#0027D3" d="M6.7339 17.6031C6.75282 17.5751 6.73046 17.5377 6.69671 17.5398C6.37383 17.5605 6.24313 17.7159 6.30461 18.0066C6.49464 17.8671 6.64684 17.7316 6.73411 17.6031H6.7339Z"/><path fill="#0027D3" d="M11.8669 14.9704C11.4624 14.9603 11.1829 14.4692 10.3834 14.6057C9.58397 14.7422 9.26905 15.5399 9.04634 16.152C9.04634 16.152 9.6547 15.4223 10.4335 15.2578C11.2124 15.0933 11.383 15.8208 10.8344 16.4047C10.2858 16.9886 9.92921 17.4284 8.96658 17.315C8.00396 17.2015 7.51942 16.9318 6.96695 16.9318C8.50161 16.9318 8.43325 17.2149 9.58053 17.0883C10.4352 16.9938 10.8013 16.3412 10.8936 16.0488C10.9383 15.9074 10.7973 15.8297 10.6049 15.8208C10.5012 15.7356 10.2979 15.6559 9.95307 15.8428C9.40426 16.1403 9.19617 16.6407 8.77096 16.684C8.50569 16.7111 8.23161 16.6316 8.06307 16.5681C7.97322 16.4814 7.96225 16.4047 7.96225 16.4047C8.25224 16.5959 8.65725 16.5186 8.65725 16.5186C8.71615 16.2234 8.9294 15.4514 9.44983 14.9906C10.145 14.3751 10.851 14.3572 11.3553 14.573C11.7577 14.7452 12.193 14.717 12.4555 14.4074C12.6795 14.1432 13.0104 13.8097 13.0104 13.8097C13.0104 13.8097 12.4607 14.9855 11.8674 14.9706L11.8669 14.9704Z"/><path fill="#0027D3" d="M7.97595 18.8169C8.63032 18.7144 9.1974 18.081 9.41345 17.81C9.51061 17.8298 9.58606 17.8433 9.63852 17.8519C9.44225 18.0259 9.27092 18.1753 9.14065 18.2853C8.58474 18.7547 7.92543 19.0003 6.96646 19.0003V18.878C6.96646 18.878 7.48926 18.8931 7.97574 18.8169H7.97595Z"/><path fill="#000" d="M8.77082 16.6846C9.19602 16.6413 9.40411 16.141 9.95293 15.8434C10.2977 15.6565 10.5011 15.7364 10.6047 15.8215C10.3996 15.812 10.1359 15.8804 9.97528 16.0342C9.6638 16.3317 9.345 16.848 8.74588 16.8023C8.35915 16.7729 8.16267 16.6648 8.06314 16.5687C8.23189 16.6323 8.50598 16.7117 8.77103 16.6846H8.77082Z"/><path fill="#000" d="M8.9668 17.3152C9.92943 17.4287 10.2861 16.9888 10.8347 16.4049C11.3833 15.821 11.2126 15.0936 10.4337 15.258C9.65491 15.4225 9.04655 16.1522 9.04655 16.1522C9.26926 15.5401 9.58419 14.7424 10.3837 14.6059C11.1831 14.4694 11.4624 14.9605 11.8672 14.9706C12.4605 14.9855 13.0101 13.8097 13.0101 13.8097C13.0101 13.8097 12.6342 15.0595 11.8168 15.8454C11.1909 16.4473 10.2807 17.2825 9.63901 17.8515C9.58655 17.8427 9.51088 17.8291 9.41393 17.8095C9.3374 17.794 9.24733 17.7746 9.14458 17.7507C8.98658 17.7139 8.79869 17.6666 8.58308 17.6059C7.85262 17.4002 7.4143 17.1171 6.96695 17.1171V16.9322C7.51942 16.9322 8.00396 17.202 8.96658 17.3154L8.9668 17.3152Z"/><path fill="#0027D3" d="M7.19951 17.603C7.1806 17.5751 7.20295 17.5376 7.2367 17.5398C7.55958 17.5604 7.69029 17.7159 7.6288 18.0065C7.43877 17.867 7.28657 17.7316 7.1993 17.603H7.19951Z"/><path fill="#000" d="M5.95627 15.2134H6.29011C6.37051 15.2134 6.44919 15.2379 6.5154 15.2838L6.68652 15.4022C6.73037 15.4325 6.76756 15.4713 6.79615 15.5161L6.92255 15.7157C6.94297 15.7477 6.98984 15.7477 7.01026 15.7157L7.13666 15.5161C7.16525 15.4711 7.20244 15.4323 7.24608 15.4022L7.41719 15.2838C7.4834 15.2379 7.56208 15.2134 7.64248 15.2134H7.97633C8.00857 15.2134 8.02512 15.1746 8.00277 15.1514L7.66914 14.8045H6.26346L5.92983 15.1514C5.90747 15.1746 5.92402 15.2134 5.95627 15.2134Z"/><path fill="#000" d="M8.13563 15.4738L8.11134 15.4243C8.08167 15.3634 8.01998 15.3248 7.95226 15.3248H7.70677C7.65797 15.3248 7.61154 15.3449 7.578 15.3804L6.96663 16.0284L6.35526 15.3804C6.32173 15.3449 6.27529 15.3248 6.2265 15.3248H5.981C5.91329 15.3248 5.85159 15.3634 5.82193 15.4243L5.79763 15.4738C5.76259 15.5457 5.77979 15.6321 5.83977 15.6848L6.96663 16.6778L8.0935 15.6848C8.15347 15.6321 8.17067 15.5455 8.13563 15.4738Z"/><path fill="#000" d="M5.6952 9.48904C5.6952 9.48904 5.88566 8.47413 5.07867 7.64179C4.27168 6.80924 3.85915 6.35345 4.62358 5.71553C4.62358 5.71553 3.946 4.73377 2.87116 5.43887C1.79632 6.14397 2.50571 7.31734 3.54831 7.68334C4.5909 8.04935 5.42348 8.15528 5.69498 9.48926L5.6952 9.48904Z"/><path fill="#000" d="M8.23797 9.48904C8.23797 9.48904 8.04751 8.47413 8.8545 7.64179C9.66149 6.80924 10.074 6.35345 9.30959 5.71553C9.30959 5.71553 9.98717 4.73377 11.062 5.43887C12.1369 6.14397 11.4275 7.31734 10.3849 7.68334C9.34226 8.04935 8.50969 8.15528 8.23818 9.48926L8.23797 9.48904Z"/><path fill="#000" d="M2.2814 10.4794C2.7395 11.2924 3.43772 11.4377 4.22687 11.7012C5.01602 11.9647 5.4423 12.6414 5.4423 12.6414C5.4423 12.6414 5.56934 11.5468 4.76665 10.6204C3.96396 9.69398 3.02971 9.71659 1.87339 9.40312C1.19323 9.21882 0.780065 8.97188 0.554993 8.79942C0.628297 8.94755 0.74653 9.08857 0.933767 9.19557C1.16142 9.32583 1.32393 9.44101 1.44991 9.55985C1.75667 9.6154 1.89876 9.79948 2.28183 10.4794H2.2814Z"/><path fill="#000" d="M3.18691 9.32542C2.0205 9.06427 1.10839 9.28667 0.484332 7.95872C0.484332 7.95872 0.406944 8.23624 0.469715 8.54691C0.796896 8.7902 1.49146 9.24081 2.24514 9.32629C2.60779 9.36741 2.92594 9.35664 3.18691 9.32542Z"/><path fill="#0027D3" d="M1.84489 10.6475C1.78405 10.5728 1.71913 10.4891 1.64991 10.3941C1.12518 9.67462 0.69223 9.39968 0.69223 9.39968C0.69223 9.39968 0.807668 9.756 1.15226 10.2484L1.02565 9.78958C1.02565 9.78958 1.31413 10.2318 1.84511 10.6475H1.84489Z"/><path fill="#000" d="M5.57056 13.3486C5.32098 12.8414 4.85321 12.2226 3.74612 11.8247C2.87271 11.5108 2.63022 11.3248 2.46061 11.2161C2.46061 11.2161 2.245 11.1384 1.84494 10.6473C1.31397 10.2315 1.02548 9.78931 1.02548 9.78931L1.1521 10.2481C1.22884 10.3577 1.31676 10.4742 1.41737 10.595C1.97027 11.2579 2.77941 11.6114 3.71753 11.9399C4.6333 12.2605 5.51703 12.98 5.64945 14.3708C5.65096 14.3866 5.65569 14.401 5.66278 14.4141C5.71996 14.1773 5.77134 13.757 5.57034 13.3486H5.57056Z"/><path fill="#0027D3" d="M5.84633 12.3912C5.83386 11.4413 5.8459 10.5399 4.19107 9.68449C3.83809 9.50214 3.50339 9.39578 3.18717 9.32495C2.9262 9.35617 2.60826 9.36671 2.24539 9.32581C1.4915 9.24055 0.797152 8.78993 0.469971 8.54643C0.486738 8.62997 0.513824 8.71566 0.555098 8.79941C0.780385 8.97164 1.19355 9.21881 1.8735 9.4031C3.02981 9.71657 3.96407 9.69375 4.76676 10.6204C5.56945 11.5468 5.4424 12.6414 5.4424 12.6414C5.4424 12.6414 5.01612 11.9647 4.22697 11.7012C3.43782 11.4377 2.73961 11.2923 2.28151 10.4794C1.89843 9.79946 1.75634 9.61517 1.44958 9.55984C1.70281 9.79882 1.80729 10.0533 1.99066 10.4764C2.21745 11 2.46058 11.2159 2.46058 11.2159C2.63019 11.3246 2.87267 11.5104 3.74609 11.8245C4.85317 12.2224 5.32116 12.8412 5.57052 13.3484C5.77152 13.7568 5.72014 14.1771 5.66296 14.4139C5.68231 14.4497 5.71971 14.4738 5.76249 14.4738C5.82591 14.4738 5.87707 14.4219 5.87599 14.3584C5.87083 14.0466 5.85665 13.1594 5.84654 12.3914L5.84633 12.3912Z"/><path fill="#000" d="M11.6519 10.4794C11.1938 11.2924 10.4956 11.4377 9.70645 11.7012C8.9173 11.9647 8.49102 12.6414 8.49102 12.6414C8.49102 12.6414 8.36397 11.5468 9.16666 10.6204C9.96935 9.69398 10.9036 9.71659 12.0599 9.40312C12.7401 9.21882 13.1533 8.97188 13.3783 8.79942C13.305 8.94755 13.1868 9.08857 12.9995 9.19557C12.7719 9.32583 12.6094 9.44101 12.4834 9.55985C12.1767 9.6154 12.0346 9.79948 11.6515 10.4794H11.6519Z"/><path fill="#000" d="M10.7466 9.32541C11.913 9.06426 12.8251 9.28666 13.4492 7.95871C13.4492 7.95871 13.5266 8.23622 13.4638 8.5469C13.1366 8.79018 12.442 9.2408 11.6884 9.32627C11.3257 9.3674 11.0076 9.35663 10.7466 9.32541Z"/><path fill="#0027D3" d="M12.0887 10.6475C12.1496 10.5728 12.2145 10.4891 12.2837 10.3941C12.8084 9.67462 13.2414 9.39968 13.2414 9.39968C13.2414 9.39968 13.1259 9.756 12.7813 10.2484L12.908 9.78958C12.908 9.78958 12.6195 10.2318 12.0885 10.6475H12.0887Z"/><path fill="#000" d="M8.36311 13.3486C8.61269 12.8414 9.08046 12.2226 10.1876 11.8247C11.061 11.5108 11.3035 11.3248 11.4731 11.2161C11.4731 11.2161 11.6887 11.1384 12.0887 10.6473C12.6197 10.2315 12.9082 9.78931 12.9082 9.78931L12.7816 10.2481C12.7048 10.3577 12.6169 10.4742 12.5163 10.595C11.9634 11.2579 11.1543 11.6114 10.2161 11.9399C9.30038 12.2605 8.41664 12.98 8.28422 14.3708C8.28272 14.3866 8.27799 14.401 8.27089 14.4141C8.21371 14.1773 8.16233 13.757 8.36333 13.3486H8.36311Z"/><path fill="#0027D3" d="M8.08702 12.3912C8.09949 11.4413 8.08745 10.5399 9.74228 9.68449C10.0953 9.50214 10.43 9.39578 10.7462 9.32495C11.0072 9.35617 11.3251 9.36671 11.688 9.32581C12.4419 9.24055 13.1362 8.78993 13.4634 8.54643C13.4466 8.62997 13.4195 8.71566 13.3783 8.79941C13.153 8.97164 12.7398 9.21881 12.0599 9.4031C10.9035 9.71657 9.96929 9.69375 9.1666 10.6204C8.3639 11.5468 8.49095 12.6414 8.49095 12.6414C8.49095 12.6414 8.91723 11.9647 9.70638 11.7012C10.4955 11.4377 11.1937 11.2923 11.6518 10.4794C12.0349 9.79946 12.177 9.61517 12.4838 9.55984C12.2305 9.79882 12.1261 10.0533 11.9427 10.4764C11.7159 11 11.4728 11.2159 11.4728 11.2159C11.3032 11.3246 11.0607 11.5104 10.1873 11.8245C9.08018 12.2224 8.61219 12.8412 8.36283 13.3484C8.16183 13.7568 8.21321 14.1771 8.27039 14.4139C8.25105 14.4497 8.21364 14.4738 8.17086 14.4738C8.10745 14.4738 8.05628 14.4219 8.05736 14.3584C8.06252 14.0466 8.07671 13.1594 8.08681 12.3914L8.08702 12.3912Z"/><path fill="#000" d="M4.87743 2.93512C4.87743 2.93512 4.5625 3.09659 4.26562 3.60685C4.26562 3.60685 5.18204 3.03523 5.55071 3.11726C5.91938 3.19929 6.05416 4.27276 6.21754 4.49107C6.21754 4.49107 6.08705 3.41136 6.04599 3.04707C6.00493 2.68279 5.66206 2.79173 5.47332 2.87182C5.28458 2.95191 4.87764 2.93512 4.87764 2.93512H4.87743Z"/><path fill="#0027D3" d="M1.63191 12.9867C1.62439 12.9871 1.61686 12.9873 1.60934 12.9878C0.890485 13.0207 0.763869 12.3888 0.763869 12.3888C0.75957 12.6358 0.78644 12.8717 0.85566 13.0459C1.07192 13.1387 1.38405 13.205 1.63191 12.9867Z"/><path fill="#000" d="M1.63172 12.4086C2.07154 12.3416 1.17857 12.0256 0.689728 11.6794V12.2247C0.689728 12.2247 1.24177 12.468 1.63172 12.4086Z"/><path fill="#0027D3" d="M2.45409 13.2433C2.35542 13.2814 2.26879 13.3266 2.19247 13.3757C3.06138 13.3823 3.8099 13.5688 4.40386 13.9871C3.89997 13.4198 3.28408 13.2725 2.45431 13.2433H2.45409Z"/><path fill="#0027D3" d="M1.82876 13.7238C1.69613 13.9126 1.65872 14.0728 1.65872 14.0728C2.2587 13.8461 2.82278 13.8555 3.36966 13.9795C2.86534 13.5926 2.13767 13.6682 1.82855 13.7238H1.82876Z"/><path fill="#0027D3" d="M4.38719 13.6597L4.23649 13.5161C4.23649 13.5161 4.21371 13.1488 3.40714 12.848C2.06402 12.3475 1.34968 12.7731 0.689943 12.2249C0.704991 12.2314 1.24714 12.4672 1.6315 12.4086C2.07133 12.3416 1.17835 12.0258 0.689728 11.6794V11.4311C0.689728 11.4311 1.04378 12.0376 2.04403 12.2144C2.37917 12.386 3.11457 12.7354 3.7857 12.8674C4.50155 13.1934 4.38719 13.6597 4.38719 13.6597Z"/><path fill="#000" d="M4.64118 14.3822C4.64118 14.5271 4.52403 14.5133 4.24822 14.3441C3.9722 14.1748 3.52894 13.9677 3.52894 13.9677L3.42102 13.9912C3.40383 13.9871 3.38684 13.9832 3.36965 13.9794C2.86555 13.5925 2.13766 13.668 1.82854 13.7236C1.9098 13.6082 2.02674 13.4822 2.19248 13.3757C3.06138 13.3821 3.8099 13.5686 4.40386 13.9869C3.89997 13.4196 3.28409 13.2723 2.45431 13.243C2.45431 13.243 1.83649 13.1225 1.37302 13.2977C1.11011 13.3972 0.946307 13.2749 0.855591 13.0463C1.07206 13.1388 1.38398 13.2054 1.63184 12.9871C2.34855 12.9533 3.31074 12.8639 4.23661 13.516L4.38731 13.6596C4.38731 13.6596 4.50167 13.1933 3.78583 12.8673C3.82688 12.8757 3.86773 12.8829 3.90814 12.8893C3.92233 12.8915 3.93587 12.8936 3.94942 12.8956C4.00187 12.93 4.05024 12.9649 4.09301 13.0006C4.58271 13.4082 4.64118 14.2371 4.64118 14.3822Z"/><path fill="#000" d="M3.94945 12.8954C3.40128 12.5365 2.39394 12.2551 2.39394 12.2551C2.26948 12.2474 2.15318 12.2331 2.04419 12.214C2.39996 12.3963 3.20609 12.7787 3.9084 12.8889C3.92237 12.8911 3.93613 12.8933 3.94945 12.8952V12.8954Z"/><path fill="#000" d="M6.06391 2.91321C6.05252 2.84539 6.01211 2.78619 5.95342 2.75045C5.89452 2.71471 5.82315 2.70631 5.7578 2.72741C5.42782 2.83377 4.62943 3.05014 4.34116 2.7597C3.52879 1.94136 2.29874 0.67369 1.80754 0.166881C1.63535 -0.010739 1.36384 -0.0514302 1.14737 0.0682749C0.998826 0.150303 0.898006 0.29326 0.870275 0.460546C0.80213 0.874563 0.649717 1.70776 0.396055 2.63526C0.00373709 4.06936 -0.264758 5.38353 0.426795 6.94271C0.420346 7.07253 0.373483 7.99831 0.314366 8.87629C0.276962 9.43284 0.330919 9.99864 0.466779 10.4697C0.642193 11.0784 0.942719 11.5216 1.3604 11.7873C1.73337 12.0246 2.23017 12.2192 2.71062 12.4076C3.38842 12.6733 4.02881 12.9241 4.25044 13.2572C4.49722 13.6279 4.56644 14.1911 4.58536 14.446C4.39963 14.3164 3.99592 14.0598 3.46451 13.8699C3.43098 13.8578 3.39401 13.8755 3.38218 13.9091C3.37036 13.9427 3.38777 13.9797 3.42131 13.9915C4.1249 14.2432 4.61223 14.6254 4.61718 14.6292C4.62878 14.6385 4.64297 14.6432 4.65716 14.6432C4.66683 14.6432 4.67672 14.6411 4.68575 14.6366C4.70811 14.6256 4.72208 14.6026 4.72165 14.5778C4.72122 14.5425 4.70467 13.7069 4.35792 13.1857C4.11372 12.8188 3.45506 12.5607 2.7577 12.2875C2.28305 12.1014 1.79206 11.9092 1.42962 11.6786C0.5992 11.1503 0.375633 9.88927 0.443348 8.88534C0.506978 7.94212 0.556206 6.944 0.556636 6.9341C0.557066 6.92398 0.555131 6.91386 0.551047 6.9046C-0.130833 5.37836 0.134008 4.08378 0.520736 2.66971C0.775904 1.73661 0.929176 0.898461 0.997751 0.481861C1.01882 0.353759 1.09621 0.244388 1.20971 0.181521C1.37545 0.09002 1.58333 0.121023 1.7151 0.25709C2.20652 0.76433 3.437 2.03222 4.24979 2.85099C4.57633 3.17996 5.35968 2.99179 5.79757 2.85056C5.82745 2.84087 5.85991 2.84475 5.88678 2.86111C5.91387 2.87769 5.93171 2.90395 5.93708 2.93517C6.33134 5.2621 6.49471 7.85622 6.42313 10.6456C6.42227 10.6813 6.45043 10.7108 6.4859 10.7119C6.52094 10.7134 6.55103 10.6846 6.55211 10.6491C6.62412 7.85126 6.45989 5.24875 6.06434 2.91364L6.06391 2.91321Z"/><path fill="#000" d="M1.30069 6.17597L3.25969 3.61114C3.38566 3.44622 3.39985 3.22102 3.29495 3.04189C2.81148 2.21752 2.28008 1.4967 1.65689 0.975037C1.56058 0.894515 1.41376 0.950278 1.3942 1.0745C1.35357 1.33243 1.25877 1.79747 1.03821 2.58589C0.661369 3.933 0.427699 5.31607 1.07174 6.17619C1.12871 6.25219 1.24307 6.25154 1.30069 6.17597Z"/><path fill="#000" d="M9.05572 2.93505C9.05572 2.93505 9.37065 3.09652 9.66752 3.60677C9.66752 3.60677 8.75111 3.03516 8.38244 3.11719C8.01377 3.19922 7.87898 4.27269 7.71561 4.491C7.71561 4.491 7.84609 3.41128 7.88715 3.047C7.92821 2.68293 8.27108 2.79166 8.45983 2.87175C8.64857 2.95184 9.05551 2.93505 9.05551 2.93505H9.05572Z"/><path fill="#0027D3" d="M12.3014 12.9867C12.3089 12.9871 12.3164 12.9873 12.3239 12.9878C13.0428 13.0207 13.1694 12.3888 13.1694 12.3888C13.1737 12.6358 13.1468 12.8717 13.0776 13.0459C12.8614 13.1387 12.5492 13.205 12.3014 12.9867Z"/><path fill="#000" d="M12.3018 12.4086C11.862 12.3416 12.755 12.0256 13.2438 11.6794V12.2247C13.2438 12.2247 12.6918 12.468 12.3018 12.4086Z"/><path fill="#0027D3" d="M11.479 13.2433C11.5776 13.2814 11.6643 13.3266 11.7406 13.3757C10.8717 13.3823 10.1232 13.5688 9.52921 13.9871C10.0331 13.4198 10.649 13.2725 11.4788 13.2433H11.479Z"/><path fill="#0027D3" d="M12.1047 13.7238C12.2374 13.9126 12.2748 14.0728 12.2748 14.0728C11.6748 13.8461 11.1107 13.8555 10.5638 13.9795C11.0682 13.5926 11.7958 13.6682 12.105 13.7238H12.1047Z"/><path fill="#0027D3" d="M9.54604 13.6597L9.69674 13.5161C9.69674 13.5161 9.71952 13.1488 10.5261 12.848C11.8692 12.3475 12.5835 12.7731 13.2433 12.2249C13.2282 12.2314 12.6861 12.4672 12.3017 12.4086C11.8619 12.3416 12.7549 12.0258 13.2435 11.6794V11.4311C13.2435 11.4311 12.8894 12.0376 11.8892 12.2144C11.5541 12.386 10.8187 12.7354 10.1475 12.8674C9.43168 13.1934 9.54604 13.6597 9.54604 13.6597Z"/><path fill="#000" d="M9.29202 14.3822C9.29202 14.5271 9.40918 14.5133 9.68498 14.3441C9.961 14.1748 10.4043 13.9677 10.4043 13.9677L10.5122 13.9912C10.5294 13.9871 10.5464 13.9832 10.5636 13.9794C11.0677 13.5925 11.7955 13.668 12.1047 13.7236C12.0234 13.6082 11.9065 13.4822 11.7407 13.3757C10.8718 13.3821 10.1233 13.5686 9.52935 13.9869C10.0332 13.4196 10.6491 13.2723 11.4789 13.243C11.4789 13.243 12.0967 13.1225 12.5602 13.2977C12.8231 13.3972 12.9869 13.2749 13.0776 13.0463C12.8611 13.1388 12.5492 13.2054 12.3014 12.9871C11.5847 12.9533 10.6225 12.8639 9.69659 13.516L9.5459 13.6596C9.5459 13.6596 9.43154 13.1933 10.1474 12.8673C10.1063 12.8757 10.0655 12.8829 10.0251 12.8893C10.0109 12.8915 9.99733 12.8936 9.98379 12.8956C9.93134 12.93 9.88297 12.9649 9.84019 13.0006C9.35049 13.4082 9.29202 14.2371 9.29202 14.3822Z"/><path fill="#000" d="M9.98389 12.8954C10.5321 12.5365 11.5394 12.2551 11.5394 12.2551C11.6639 12.2474 11.7802 12.2331 11.8892 12.214C11.5334 12.3963 10.7272 12.7787 10.0249 12.8889C10.011 12.8911 9.99721 12.8933 9.98389 12.8952V12.8954Z"/><path fill="#000" d="M7.86915 2.91321C7.88054 2.84539 7.92095 2.78619 7.97964 2.75045C8.03854 2.71471 8.10991 2.70631 8.17526 2.72741C8.50524 2.83377 9.30363 3.05014 9.5919 2.7597C10.4043 1.94136 11.6343 0.67369 12.1255 0.166881C12.2977 -0.010739 12.5692 -0.0514302 12.7857 0.0682749C12.9342 0.150303 13.0351 0.29326 13.0628 0.460546C13.1309 0.874563 13.2833 1.70776 13.537 2.63526C13.9293 4.06936 14.1978 5.38353 13.5063 6.94271C13.5127 7.07253 13.5596 7.99831 13.6187 8.87629C13.6561 9.43284 13.6021 9.99864 13.4663 10.4697C13.2909 11.0784 12.9903 11.5216 12.5727 11.7873C12.1997 12.0246 11.7029 12.2192 11.2224 12.4076C10.5446 12.6733 9.90425 12.9241 9.68262 13.2572C9.43584 13.6279 9.36662 14.1911 9.3477 14.446C9.53343 14.3164 9.93714 14.0598 10.4685 13.8699C10.5021 13.8578 10.5391 13.8755 10.5509 13.9091C10.5627 13.9427 10.5453 13.9797 10.5118 13.9915C9.80816 14.2432 9.32083 14.6254 9.31588 14.6292C9.30428 14.6385 9.29009 14.6432 9.2759 14.6432C9.26623 14.6432 9.25634 14.6411 9.24731 14.6366C9.22495 14.6256 9.21098 14.6026 9.21141 14.5778C9.21184 14.5425 9.22839 13.7069 9.57514 13.1857C9.81934 12.8188 10.478 12.5607 11.1754 12.2875C11.65 12.1014 12.141 11.9092 12.5034 11.6786C13.3339 11.1503 13.5574 9.88927 13.4897 8.88534C13.4261 7.94212 13.3769 6.944 13.3764 6.9341C13.376 6.92398 13.3779 6.91386 13.382 6.9046C14.0639 5.37836 13.7991 4.08378 13.4123 2.66971C13.1572 1.73661 13.0039 0.898461 12.9353 0.481861C12.9142 0.353759 12.8369 0.244388 12.7233 0.181521C12.5576 0.09002 12.3497 0.121023 12.218 0.25709C11.7265 0.76433 10.4961 2.03222 9.68327 2.85099C9.35673 3.17996 8.57338 2.99179 8.13549 2.85056C8.10561 2.84087 8.07315 2.84475 8.04628 2.86111C8.01919 2.87769 8.00135 2.90395 7.99598 2.93517C7.60173 5.2621 7.43835 7.85622 7.50993 10.6456C7.51079 10.6813 7.48263 10.7108 7.44716 10.7119C7.41212 10.7134 7.38203 10.6846 7.38095 10.6491C7.30894 7.85126 7.47317 5.24875 7.86872 2.91364L7.86915 2.91321Z"/><path fill="#000" d="M12.6325 6.17597L10.6735 3.61114C10.5476 3.44622 10.5334 3.22102 10.6383 3.04189C11.1217 2.21752 11.6531 1.4967 12.2763 0.975037C12.3726 0.894515 12.5195 0.950278 12.539 1.0745C12.5797 1.33243 12.6745 1.79747 12.895 2.58589C13.2718 3.933 13.5055 5.31607 12.8615 6.17619C12.8045 6.25219 12.6901 6.25154 12.6325 6.17597Z"/><path fill="#fff" d="M128.617 7.01116V8.14787L127.473 9.38724V10.0106L128.617 11.2426V14.6748H130.905V10.2893L130.311 9.69525L130.905 9.10123V7.01116H134.374V4.72308H125.112V7.01116H128.617ZM128.324 7.3045H124.819V4.42973H134.668V7.3045H131.199V9.21857L130.722 9.69525L131.199 10.1719V14.9681H128.324V11.36L127.18 10.1279V9.26991L128.324 8.03053V7.3045Z"/><path fill="#fff" d="M117.345 12.086H119.164C119.787 12.0933 120.396 12.0933 120.983 12.0933L121.21 11.866V11.36L120.059 10.1279V9.26991L121.21 8.03053V7.53184L120.983 7.3045H117.345L117.118 7.53184V8.03053L118.269 9.26991V10.1279L117.118 11.36V11.866L117.345 12.086ZM114.537 12.9294L116.275 14.6748H122.053L123.791 12.9294V10.2893L123.197 9.69525L123.791 9.10123V6.46114L122.053 4.72308H116.275L114.537 6.46114V9.10123L115.131 9.69525L114.537 10.2893V12.9294ZM117.228 12.3794L116.825 11.9833V11.2426L117.976 10.0106V9.38724L116.825 8.14787V7.41451L117.228 7.01116H121.1L121.503 7.41451V8.14787L120.352 9.38724V10.0106L121.503 11.2426V11.9833L121.1 12.3867C120.433 12.3867 119.787 12.3867 119.164 12.3794H117.228ZM114.243 13.0467V10.1719L114.72 9.69525L114.243 9.21857V6.3438L116.157 4.42973H122.171L124.085 6.3438V9.21857L123.608 9.69525L124.085 10.1719V13.0467L122.171 14.9681H116.157L114.243 13.0467Z"/><path fill="#fff" d="M110.487 7.53184L110.259 7.3045H106.395V8.03053L107.546 9.26991V10.1279L106.395 11.36V12.0933H110.259L110.487 11.866V11.36L110.274 11.1326H108.426V8.25787H110.274L110.487 8.03053V7.53184ZM111.33 4.72308H103.813V9.10123L104.407 9.69525L103.813 10.2893V14.6748H111.33L113.068 12.9294V10.2893L112.474 9.69525L113.068 9.10123V6.46114L111.33 4.72308ZM110.78 7.41451V8.14787L110.406 8.55121H108.719V10.8393H110.406L110.78 11.2426V11.9833L110.377 12.3867H106.101V11.2426L107.253 10.0106V9.38724L106.101 8.14787V7.01116H110.377L110.78 7.41451ZM111.448 4.42973L113.362 6.3438V9.21857L112.885 9.69525L113.362 10.1719V13.0467L111.448 14.9681H103.52V10.1719L103.997 9.69525L103.52 9.21857V4.42973H111.448Z"/><path fill="#fff" d="M102.201 12.2838V14.8212H99.6195V12.2838H102.201Z"/><path fill="#fff" d="M91.3992 10.7159H90.4312L88.6051 8.88986V6.40377L90.4312 4.57771H98.1534V7.15914H91.5018L91.1865 7.47448V7.81916L91.5018 8.1345H92.4699L93.0052 8.66986L93.5406 8.1345H96.3273L98.1534 9.96057V12.9893L96.3273 14.8154H88.6051V12.2413H95.2566L95.572 11.926V11.0313L95.2566 10.7159H94.6113L93.3719 11.8673H92.6312L91.3992 10.7159Z"/><path fill="#fff" d="M84.7032 7.47448L84.3878 7.15913H80.3177V7.20314L81.4691 8.43518V9.18321L80.3177 10.4153V14.8227H77.7363V9.34455L78.2717 8.80919L77.7363 8.27384V4.57771H85.4585L87.2846 6.40377V9.57189L85.4585 11.398H83.7938L83.6838 11.5006L83.7938 11.6106H85.4585L87.2846 13.4367V14.8227H84.7032V14.5074L84.3878 14.1921H82.7231L80.8971 12.366V10.6426L82.7231 8.81653H84.3878L84.7032 8.50118V7.47448Z"/><path fill="#fff" d="M66.9413 4.57771H74.6635L76.4895 6.40377V7.78982H73.9081V7.47448L73.5928 7.15913H69.838L69.5227 7.47448V8.0905L69.816 8.40585H71.5834V10.9873H69.816L69.5227 11.3026V11.926L69.838 12.2413H73.5928L73.9081 11.926V11.6106H76.4895V12.9893L74.6635 14.8227H66.9413V10.2319L67.4766 9.69656L66.9413 9.16121V4.57771Z"/><path fill="#fff" d="M58.5802 7.47448V8.0905L59.7315 9.32988V10.0706L58.5802 11.3026V11.926L58.8955 12.234H62.6503L62.9656 11.926V7.47448L62.6503 7.15913H58.8955L58.5802 7.47448ZM55.9988 4.57771H63.721L65.547 6.40377V12.9893L63.721 14.8227H55.9988V10.2319L56.5341 9.69656L55.9988 9.16121V4.57771Z"/><path fill="#fff" d="M53.5645 6.40377V11.926L53.8798 12.2413H54.8185V14.8154H52.8164L50.9831 12.9893V7.47448L50.6677 7.15914H49.7364V4.57771H51.7384L53.5645 6.40377Z"/><path fill="#fff" d="M41.883 10.7159H40.915L39.0889 8.88986V6.40377L40.915 4.57771H48.6372V7.15914H41.9857L41.6703 7.47448V7.81916L41.9857 8.1345H42.9537L43.4891 8.66986L44.0244 8.1345H46.8111L48.6372 9.96057V12.9893L46.8111 14.8154H39.0889V12.2413H45.7404L46.0558 11.926V11.0313L45.7404 10.7159H45.0951L43.8557 11.8673H43.115L41.883 10.7159Z"/><path fill="#fff" d="M28.4247 7.47448V8.0905L29.5761 9.32988V10.0706L28.4247 11.3026V14.8227H25.8433V10.2319L26.3786 9.69656L25.8433 9.16121V6.40377L27.6693 4.57771H32.1428L33.9689 6.40377V11.926L34.2842 12.2413H34.7169L35.0322 11.926V4.57771H37.6136V12.9893L35.7876 14.8227H33.2135L31.3874 12.9893V7.47448L31.0721 7.15913H28.74L28.4247 7.47448Z"/><path fill="#fff" d="M23.4826 6.40377V11.926L23.798 12.2413H24.7367V14.8154H22.7346L20.9012 12.9893V7.47448L20.5859 7.15914H19.6545V4.57771H21.6566L23.4826 6.40377Z"/></svg>