<svg xmlns="http://www.w3.org/2000/svg" width="40" height="54" viewBox="0 0 40 54" fill="none">
  <path d="M36.3627 20.6664C38.0924 16.8051 37.4206 13.5496 36.4391 9.99755C35.8045 7.70029 35.4237 5.63713 35.2527 4.61115C35.1838 4.19681 34.931 3.84273 34.5599 3.63956C34.0178 3.34308 33.3385 3.44386 32.9077 3.88379C31.6788 5.13961 28.6014 8.27887 26.569 10.3058C25.8478 11.0251 23.8503 10.4897 23.0247 10.2263C22.3772 9.97622 21.2574 9.78052 20 9.78532C18.7426 9.78052 17.6228 9.97622 16.9753 10.2263C16.1497 10.4897 14.1523 11.0251 13.431 10.3058C11.3986 8.27887 8.3212 5.13961 7.09227 3.88379C6.66148 3.44386 5.98221 3.34308 5.44008 3.63956C5.06899 3.84273 4.81621 4.19681 4.74737 4.61115C4.57634 5.63713 4.19556 7.70029 3.56093 9.99755C2.57941 13.5496 1.90767 16.8051 3.6373 20.6664C3.62117 20.9879 3.50446 23.2809 3.35602 25.4555C3.30708 26.1807 3.3216 26.9124 3.39528 27.6131V27.6168C3.39744 27.6371 3.40012 27.6568 3.40228 27.6771C3.41034 27.7485 3.41895 27.8194 3.42809 27.8898C3.67172 29.8159 4.13587 31.1139 4.29614 31.7831V33.7487C4.37197 35.1714 4.61883 36.7893 4.88075 37.675C4.88075 37.675 4.88236 37.6804 4.88559 37.69C4.90119 37.7428 4.9184 37.7945 4.93614 37.8446C5.16526 38.5176 6.10698 41.0425 7.8662 42.717C9.43234 44.2079 11.7095 46.2764 13.3149 47.6858C13.8059 48.1172 14.2346 48.4873 14.5605 48.7593C15.9507 49.9218 17.6008 50.5302 20 50.5302C22.3992 50.5302 24.0493 49.9218 25.4395 48.7593C25.7655 48.4873 26.1941 48.1172 26.6851 47.6858C28.2905 46.2764 30.5677 44.2079 32.1338 42.717C33.893 41.0425 34.8348 38.5176 35.0639 37.8446C35.0816 37.7945 35.0988 37.7428 35.115 37.69C35.1177 37.6804 35.1193 37.675 35.1193 37.675C35.3812 36.7893 35.6281 35.1714 35.7039 33.7487V31.7831C35.784 31.4482 35.94 30.9566 36.1067 30.3076C36.2734 29.6586 36.4498 28.8529 36.5719 27.8898C36.5811 27.8194 36.5897 27.7485 36.5977 27.6771C36.5999 27.6568 36.6026 27.6371 36.6047 27.6168V27.6131C36.6784 26.9124 36.6929 26.1807 36.644 25.4555C36.4956 23.2809 36.3789 20.9879 36.3627 20.6664ZM4.55214 32.5675C4.48599 32.5254 4.42037 32.4833 4.35799 32.4406C4.42037 32.4827 4.48545 32.5249 4.55214 32.567V32.5675Z" fill="white"/>
  <path d="M7.74034 40.5498C8.75252 40.5248 9.45169 39.3084 11.4519 39.6465C13.452 39.9846 14.2399 41.9603 14.7971 43.4763C14.7971 43.4763 13.2751 41.6691 11.3265 41.2617C9.37801 40.8543 8.95098 42.6562 10.3235 44.1024C11.696 45.5485 12.5883 46.638 14.9966 46.357C17.405 46.0759 18.6173 45.4078 19.9995 45.4078C16.1599 45.4078 16.331 46.109 13.4606 45.7954C11.3222 45.5613 10.4063 43.9451 10.1756 43.2209C10.0637 42.8705 10.4165 42.678 10.8979 42.6562C11.1571 42.445 11.6659 42.2477 12.5286 42.7106C13.9016 43.4475 14.4222 44.6868 15.4861 44.794C16.1497 44.8612 16.8355 44.6644 17.2571 44.5071C17.4819 44.2922 17.5093 44.1024 17.5093 44.1024C16.7838 44.5759 15.7706 44.3845 15.7706 44.3845C15.6232 43.6534 15.0897 41.7411 13.7876 40.5999C12.0483 39.0754 10.2821 39.0311 9.02036 39.5654C8.01355 39.992 6.92446 39.9222 6.26778 39.1554C5.70737 38.5011 4.87966 37.675 4.87966 37.675C4.87966 37.675 6.25487 40.5871 7.73926 40.5504L7.74034 40.5498Z" fill="#0027D3"/>
  <path d="M17.4749 50.0758C15.8378 49.822 14.419 48.2532 13.8785 47.5818C13.6354 47.6308 13.4466 47.6644 13.3154 47.6858C13.8064 48.1166 14.2351 48.4867 14.561 48.7592C15.9518 49.9217 17.6013 50.5302 20.0005 50.5302V50.2273C20.0005 50.2273 18.6926 50.2646 17.4755 50.0758H17.4749Z" fill="#0027D3"/>
  <path d="M15.4866 44.7944C14.4228 44.6872 13.9022 43.448 12.5291 42.711C11.6664 42.2481 11.1577 42.446 10.8984 42.6566C11.4115 42.6331 12.0714 42.8027 12.4732 43.1835C13.2525 43.9204 14.0501 45.1992 15.549 45.0861C16.5165 45.0131 17.0081 44.7454 17.2571 44.5075C16.8349 44.6648 16.1492 44.8616 15.4861 44.7944H15.4866Z" fill="black"/>
  <path d="M14.997 46.3575C12.5886 46.6385 11.6964 45.5491 10.3238 44.1029C8.95132 42.6567 9.37835 40.8548 11.3269 41.2623C13.2754 41.6697 14.7974 43.4769 14.7974 43.4769C14.2403 41.9608 13.4524 39.9851 11.4522 39.647C9.45203 39.3089 8.7534 40.5253 7.74068 40.5504C6.25629 40.5871 4.88108 37.675 4.88108 37.675C4.88108 37.675 5.82173 40.7706 7.86653 42.717C9.43267 44.2079 11.7098 46.2764 13.3152 47.6858C13.4464 47.664 13.6358 47.6304 13.8783 47.5818C14.0698 47.5435 14.2951 47.4955 14.5522 47.4363C14.9475 47.3451 15.4176 47.2278 15.957 47.0774C17.7845 46.5681 18.8811 45.8669 20.0003 45.8669V45.4088C18.6181 45.4088 17.4059 46.077 14.9975 46.358L14.997 46.3575Z" fill="black"/>
  <path d="M19.4175 47.0694C19.4649 47 19.4089 46.9072 19.3245 46.9126C18.5167 46.9638 18.1897 47.3488 18.3435 48.0687C18.8189 47.7231 19.1997 47.3877 19.4181 47.0694H19.4175Z" fill="#0027D3"/>
  <path d="M32.2594 40.5498C31.2473 40.5248 30.5481 39.3084 28.5479 39.6465C26.5478 39.9846 25.7599 41.9603 25.2027 43.4763C25.2027 43.4763 26.7247 41.6691 28.6732 41.2617C30.6218 40.8543 31.0488 42.6562 29.6763 44.1024C28.3038 45.5485 27.4115 46.638 25.0031 46.357C22.5948 46.0759 21.3825 45.4078 20.0003 45.4078C23.8398 45.4078 23.6688 46.109 26.5392 45.7954C28.6775 45.5613 29.5935 43.9451 29.8242 43.2209C29.9361 42.8705 29.5832 42.678 29.1019 42.6562C28.8427 42.445 28.3339 42.2477 27.4712 42.7106C26.0982 43.4475 25.5775 44.6868 24.5137 44.794C23.8501 44.8612 23.1643 44.6644 22.7427 44.5071C22.5179 44.2922 22.4904 44.1024 22.4904 44.1024C23.216 44.5759 24.2292 44.3845 24.2292 44.3845C24.3766 43.6534 24.9101 41.7411 26.2122 40.5999C27.9515 39.0754 29.7177 39.0311 30.9794 39.5654C31.9862 39.992 33.0753 39.9222 33.732 39.1554C34.2924 38.5011 35.1201 37.675 35.1201 37.675C35.1201 37.675 33.7449 40.5871 32.2605 40.5504L32.2594 40.5498Z" fill="#0027D3"/>
  <path d="M22.5251 50.0758C24.1622 49.822 25.581 48.2532 26.1215 47.5818C26.3646 47.6308 26.5534 47.6644 26.6846 47.6858C26.1936 48.1166 25.7649 48.4867 25.439 48.7592C24.0482 49.9217 22.3987 50.5302 19.9995 50.5302V50.2273C19.9995 50.2273 21.3074 50.2646 22.5245 50.0758H22.5251Z" fill="#0027D3"/>
  <path d="M24.5139 44.7944C25.5778 44.6872 26.0984 43.448 27.4714 42.711C28.3341 42.2481 28.8429 42.446 29.1021 42.6566C28.589 42.6331 27.9291 42.8027 27.5274 43.1835C26.7481 43.9204 25.9505 45.1992 24.4516 45.0861C23.484 45.0131 22.9924 44.7454 22.7434 44.5075C23.1656 44.6648 23.8513 44.8616 24.5145 44.7944H24.5139Z" fill="black"/>
  <path d="M25.0036 46.3575C27.4119 46.6385 28.3042 45.5491 29.6767 44.1029C31.0492 42.6567 30.6222 40.8548 28.6737 41.2623C26.7251 41.6697 25.2031 43.4769 25.2031 43.4769C25.7603 41.9608 26.5482 39.9851 28.5484 39.647C30.5485 39.3089 31.2472 40.5253 32.2599 40.5504C33.7443 40.5871 35.1195 37.675 35.1195 37.675C35.1195 37.675 34.1788 40.7706 32.134 42.717C30.5679 44.2079 28.2907 46.2764 26.6853 47.6858C26.5541 47.664 26.3648 47.6304 26.1222 47.5818C25.9308 47.5435 25.7054 47.4955 25.4484 47.4363C25.0531 47.3451 24.583 47.2278 24.0436 47.0774C22.216 46.5681 21.1194 45.8669 20.0002 45.8669V45.4088C21.3824 45.4088 22.5947 46.077 25.003 46.358L25.0036 46.3575Z" fill="black"/>
  <path d="M20.5825 47.0694C20.5351 47 20.5911 46.9072 20.6755 46.9126C21.4833 46.9638 21.8103 47.3488 21.6565 48.0687C21.1811 47.7231 20.8003 47.3877 20.5819 47.0694H20.5825Z" fill="#0027D3"/>
  <path d="M17.4728 41.1508H18.308C18.5092 41.1508 18.706 41.2116 18.8716 41.3252L19.2998 41.6185C19.4095 41.6937 19.5025 41.7897 19.574 41.9006L19.8903 42.3949C19.9414 42.4744 20.0586 42.4744 20.1097 42.3949L20.426 41.9006C20.4975 41.7891 20.5905 41.6932 20.6997 41.6185L21.1278 41.3252C21.2935 41.2116 21.4903 41.1508 21.6915 41.1508H22.5267C22.6074 41.1508 22.6488 41.0548 22.5928 40.9973L21.7581 40.1382H18.2413L17.4066 40.9973C17.3507 41.0548 17.3921 41.1508 17.4728 41.1508Z" fill="black"/>
  <path d="M22.9247 41.7955L22.8639 41.6729C22.7897 41.522 22.6353 41.4265 22.4659 41.4265H21.8517C21.7296 41.4265 21.6135 41.4761 21.5296 41.5641L20 43.1692L18.4704 41.5641C18.3865 41.4761 18.2704 41.4265 18.1483 41.4265H17.5341C17.3647 41.4265 17.2103 41.522 17.1361 41.6729L17.0753 41.7955C16.9877 41.9736 17.0307 42.1875 17.1807 42.3181L20 44.7775L22.8193 42.3181C22.9693 42.1875 23.0123 41.9731 22.9247 41.7955Z" fill="black"/>
  <path d="M16.8187 26.9711C16.8187 26.9711 17.2952 24.4574 15.2763 22.3958C13.2573 20.3337 12.2252 19.2048 14.1377 17.6248C14.1377 17.6248 12.4425 15.1931 9.75336 16.9395C7.06425 18.686 8.83906 21.5922 11.4475 22.4987C14.0559 23.4053 16.1389 23.6676 16.8182 26.9717L16.8187 26.9711Z" fill="black"/>
  <path d="M23.1817 26.9711C23.1817 26.9711 22.7052 24.4574 24.7242 22.3958C26.7432 20.3337 27.7752 19.2048 25.8627 17.6248C25.8627 17.6248 27.558 15.1931 30.2471 16.9395C32.9362 18.686 31.1614 21.5922 28.5529 22.4987C25.9445 23.4053 23.8615 23.6676 23.1822 26.9717L23.1817 26.9711Z" fill="black"/>
  <path d="M8.27816 29.4264C9.42426 31.4399 11.1711 31.7999 13.1455 32.4526C15.1198 33.1053 16.1863 34.7813 16.1863 34.7813C16.1863 34.7813 16.5042 32.0702 14.4959 29.7756C12.4877 27.4811 10.1503 27.537 7.25738 26.7606C5.55571 26.3042 4.52201 25.6925 3.95891 25.2654C4.14231 25.6323 4.43811 25.9815 4.90655 26.2466C5.47611 26.5692 5.8827 26.8545 6.19787 27.1488C6.96534 27.2864 7.32084 27.7423 8.27924 29.4264H8.27816Z" fill="black"/>
  <path d="M10.5435 26.567C7.62525 25.9201 5.34327 26.471 3.78197 23.1819C3.78197 23.1819 3.58835 23.8692 3.7454 24.6387C4.56396 25.2413 6.30166 26.3574 8.18727 26.5691C9.09458 26.671 9.89055 26.6443 10.5435 26.567Z" fill="black"/>
  <path d="M7.18585 29.8417C7.03364 29.6567 6.87122 29.4492 6.69804 29.2141C5.38522 27.4319 4.30204 26.751 4.30204 26.751C4.30204 26.751 4.59085 27.6335 5.45298 28.8531L5.1362 27.7167C5.1362 27.7167 5.85796 28.812 7.18638 29.8417H7.18585Z" fill="#0027D3"/>
  <path d="M16.5068 36.5318C15.8824 35.2755 14.7121 33.7429 11.9423 32.7575C9.75717 31.98 9.15051 31.5192 8.72617 31.2499C8.72617 31.2499 8.18673 31.0574 7.18584 29.8411C5.85742 28.8114 5.13567 27.7161 5.13567 27.7161L5.45244 28.8524C5.64445 29.1239 5.86442 29.4123 6.11612 29.7115C7.4994 31.3534 9.52376 32.229 11.8708 33.0427C14.1619 33.8368 16.3729 35.6189 16.7042 39.0637C16.708 39.1026 16.7198 39.1384 16.7376 39.1709C16.8806 38.5843 17.0092 37.5434 16.5063 36.5318H16.5068Z" fill="black"/>
  <path d="M17.1969 34.1615C17.1657 31.8088 17.1958 29.5761 13.0556 27.4575C12.1725 27.0058 11.3351 26.7424 10.544 26.5669C9.89109 26.6442 9.09565 26.6704 8.18781 26.5691C6.30167 26.3579 4.5645 25.2418 3.74593 24.6387C3.78788 24.8456 3.85565 25.0578 3.95891 25.2652C4.52255 25.6918 5.55624 26.304 7.25738 26.7605C10.1503 27.5369 12.4877 27.4804 14.4959 29.7755C16.5042 32.0701 16.1863 34.7812 16.1863 34.7812C16.1863 34.7812 15.1198 33.1051 13.1455 32.4524C11.1711 31.7997 9.42426 31.4398 8.27816 29.4262C7.31976 27.7422 6.96426 27.2857 6.19679 27.1487C6.83034 27.7406 7.09173 28.3709 7.55049 29.4188C8.11789 30.7156 8.72617 31.2505 8.72617 31.2505C9.15051 31.5198 9.75717 31.98 11.9423 32.758C14.7121 33.7435 15.883 35.276 16.5068 36.5324C17.0097 37.544 16.8812 38.5849 16.7381 39.1714C16.7865 39.26 16.8801 39.3197 16.9871 39.3197C17.1458 39.3197 17.2738 39.1912 17.2711 39.0339C17.2582 38.2617 17.2227 36.0642 17.1974 34.1621L17.1969 34.1615Z" fill="#0027D3"/>
  <path d="M31.7218 29.4264C30.5757 31.4399 28.8289 31.7999 26.8545 32.4526C24.8802 33.1053 23.8137 34.7813 23.8137 34.7813C23.8137 34.7813 23.4958 32.0702 25.5041 29.7756C27.5123 27.4811 29.8497 27.537 32.7426 26.7606C34.4443 26.3042 35.478 25.6925 36.0411 25.2654C35.8577 25.6323 35.5619 25.9815 35.0934 26.2466C34.5239 26.5692 34.1173 26.8545 33.8021 27.1488C33.0347 27.2864 32.6792 27.7423 31.7208 29.4264H31.7218Z" fill="black"/>
  <path d="M29.4565 26.567C32.3748 25.9201 34.6567 26.471 36.218 23.1819C36.218 23.1819 36.4116 23.8692 36.2546 24.6387C35.436 25.2413 33.6983 26.3574 31.8127 26.5691C30.9054 26.671 30.1094 26.6443 29.4565 26.567Z" fill="black"/>
  <path d="M32.8147 29.8417C32.9669 29.6567 33.1293 29.4492 33.3025 29.2141C34.6153 27.4319 35.6985 26.751 35.6985 26.751C35.6985 26.751 35.4097 27.6335 34.5476 28.8531L34.8643 27.7167C34.8643 27.7167 34.1426 28.812 32.8142 29.8417H32.8147Z" fill="#0027D3"/>
  <path d="M23.4932 36.5318C24.1176 35.2755 25.2879 33.7429 28.0577 32.7575C30.2428 31.98 30.8495 31.5192 31.2738 31.2499C31.2738 31.2499 31.8133 31.0574 32.8142 29.8411C34.1426 28.8114 34.8643 27.7161 34.8643 27.7161L34.5476 28.8524C34.3556 29.1239 34.1356 29.4123 33.8839 29.7115C32.5006 31.3534 30.4762 32.229 28.1292 33.0427C25.8381 33.8368 23.6271 35.6189 23.2958 39.0637C23.292 39.1026 23.2802 39.1384 23.2624 39.1709C23.1194 38.5843 22.9908 37.5434 23.4937 36.5318H23.4932Z" fill="black"/>
  <path d="M22.8031 34.1615C22.8343 31.8088 22.8042 29.5761 26.9444 27.4575C27.8275 27.0058 28.6649 26.7424 29.456 26.5669C30.1089 26.6442 30.9043 26.6704 31.8122 26.5691C33.6983 26.3579 35.4355 25.2418 36.2541 24.6387C36.2121 24.8456 36.1444 25.0578 36.0411 25.2652C35.4775 25.6918 34.4438 26.304 32.7426 26.7605C29.8497 27.5369 27.5123 27.4804 25.5041 29.7755C23.4958 32.0701 23.8137 34.7812 23.8137 34.7812C23.8137 34.7812 24.8802 33.1051 26.8545 32.4524C28.8289 31.7997 30.5757 31.4398 31.7218 29.4262C32.6802 27.7422 33.0357 27.2857 33.8032 27.1487C33.1697 27.7406 32.9083 28.3709 32.4495 29.4188C31.8821 30.7156 31.2738 31.2505 31.2738 31.2505C30.8495 31.5198 30.2428 31.98 28.0577 32.758C25.2879 33.7435 24.117 35.276 23.4932 36.5324C22.9903 37.544 23.1188 38.5849 23.2619 39.1714C23.2135 39.26 23.1199 39.3197 23.0129 39.3197C22.8542 39.3197 22.7262 39.1912 22.7289 39.0339C22.7418 38.2617 22.7773 36.0642 22.8026 34.1621L22.8031 34.1615Z" fill="#0027D3"/>
  <path d="M14.7734 10.7399C14.7734 10.7399 13.9855 11.1398 13.2428 12.4036C13.2428 12.4036 15.5355 10.9878 16.4579 11.191C17.3803 11.3942 17.7175 14.053 18.1262 14.5937C18.1262 14.5937 17.7998 11.9194 17.697 11.0172C17.5943 10.1149 16.7365 10.3847 16.2643 10.5831C15.7921 10.7815 14.774 10.7399 14.774 10.7399H14.7734Z" fill="black"/>
  <path d="M6.6534 35.6369C6.63458 35.6379 6.61575 35.6385 6.59693 35.6395C4.79845 35.7211 4.48167 34.156 4.48167 34.156C4.47092 34.7676 4.53814 35.3521 4.71132 35.7835C5.25237 36.0133 6.03329 36.1776 6.6534 35.6369Z" fill="#0027D3"/>
  <path d="M6.65286 34.2041C7.75325 34.0382 5.51913 33.2554 4.29612 32.3979V33.7487C4.29612 33.7487 5.67725 34.3513 6.65286 34.2041Z" fill="black"/>
  <path d="M8.71057 36.271C8.46371 36.3654 8.24697 36.4774 8.05604 36.5989C10.2299 36.6155 12.1026 37.0773 13.5886 38.1134C12.328 36.7083 10.7871 36.3435 8.71111 36.271H8.71057Z" fill="#0027D3"/>
  <path d="M7.14551 37.4612C6.81367 37.9288 6.72009 38.3256 6.72009 38.3256C8.22115 37.764 9.6324 37.7875 11.0006 38.0947C9.73889 37.1364 7.91836 37.3236 7.14497 37.4612H7.14551Z" fill="#0027D3"/>
  <path d="M13.5467 37.3029L13.1697 36.9472C13.1697 36.9472 13.1126 36.0375 11.0947 35.2925C7.73442 34.0527 5.94724 35.107 4.29666 33.7493C4.33431 33.7653 5.6907 34.3492 6.65232 34.2042C7.75271 34.0383 5.51859 33.256 4.29612 32.398V31.7832C4.29612 31.7832 5.18192 33.2854 7.6844 33.7232C8.52287 34.1482 10.3628 35.0137 12.0418 35.3405C13.8328 36.1479 13.5467 37.3029 13.5467 37.3029Z" fill="#0027D3"/>
  <path d="M14.1818 39.0926C14.1818 39.4514 13.8887 39.4173 13.1987 38.9982C12.5081 38.579 11.3991 38.066 11.3991 38.066L11.1292 38.1242C11.0861 38.114 11.0436 38.1044 11.0006 38.0948C9.73942 37.1366 7.91836 37.3238 7.14497 37.4613C7.34827 37.1755 7.64084 36.8636 8.0555 36.5996C10.2294 36.6156 12.1021 37.0774 13.5881 38.1135C12.3274 36.7084 10.7866 36.3436 8.71057 36.2711C8.71057 36.2711 7.16487 35.9725 6.00532 36.4066C5.34757 36.6529 4.93775 36.35 4.71079 35.7837C5.25237 36.013 6.03275 36.1778 6.65286 35.6371C8.44596 35.5533 10.8533 35.332 13.1697 36.9473L13.5467 37.303C13.5467 37.303 13.8328 36.1479 12.0418 35.3406C12.1446 35.3614 12.2468 35.379 12.3479 35.395C12.3834 35.4003 12.4172 35.4056 12.4511 35.4104C12.5824 35.4958 12.7034 35.5821 12.8104 35.6707C14.0355 36.6801 14.1818 38.7331 14.1818 39.0926Z" fill="black"/>
  <path d="M12.4511 35.4104C11.0797 34.5215 8.55944 33.8245 8.55944 33.8245C8.24804 33.8053 7.95708 33.7701 7.6844 33.7227C8.5745 34.1743 10.5913 35.1214 12.3484 35.3944C12.3834 35.3997 12.4178 35.4051 12.4511 35.4099V35.4104Z" fill="black"/>
  <path d="M17.7417 10.686C17.7132 10.518 17.6121 10.3714 17.4652 10.2828C17.3179 10.1943 17.1393 10.1735 16.9758 10.2258C16.1503 10.4892 14.1528 11.0251 13.4316 10.3058C11.3991 8.27888 8.32173 5.13908 7.0928 3.8838C6.66201 3.44386 5.98274 3.34308 5.44115 3.63956C5.06951 3.84273 4.81728 4.19682 4.7479 4.61115C4.57741 5.6366 4.19609 7.7003 3.56146 9.99756C2.57993 13.5496 1.90819 16.8045 3.63837 20.6664C3.62223 20.9879 3.50499 23.2809 3.35709 25.4555C3.26351 26.834 3.3985 28.2354 3.7384 29.4021C4.17727 30.9097 4.92914 32.0076 5.97413 32.6657C6.90725 33.2533 8.15016 33.7354 9.35219 34.202C11.0479 34.86 12.6501 35.4813 13.2046 36.3062C13.822 37.2245 13.9952 38.6195 14.0425 39.2508C13.5779 38.9298 12.5678 38.2942 11.2383 37.8238C11.1544 37.794 11.0619 37.8377 11.0324 37.9209C11.0028 38.0041 11.0463 38.0958 11.1302 38.1251C12.8905 38.7485 14.1098 39.695 14.1221 39.7046C14.1512 39.7276 14.1867 39.7393 14.2222 39.7393C14.2464 39.7393 14.2711 39.734 14.2937 39.7228C14.3496 39.6956 14.3846 39.6385 14.3835 39.5772C14.3824 39.4897 14.341 37.4202 13.4735 36.1292C12.8626 35.2205 11.2147 34.5811 9.46998 33.9044C8.28247 33.4437 7.05408 32.9675 6.14731 32.3964C4.0697 31.0878 3.51037 27.9645 3.67978 25.4779C3.83898 23.1417 3.96214 20.6696 3.96321 20.645C3.96429 20.62 3.95945 20.5949 3.94923 20.572C2.24326 16.7918 2.90585 13.5853 3.8734 10.0829C4.51179 7.77175 4.89526 5.69579 5.06683 4.66395C5.11953 4.34666 5.31315 4.07577 5.59712 3.92006C6.01178 3.69342 6.53185 3.77021 6.86154 4.10723C8.091 5.36358 11.1695 8.50391 13.203 10.5319C14.02 11.3467 15.9798 10.8806 17.0753 10.5308C17.1501 10.5068 17.2313 10.5164 17.2985 10.5569C17.3663 10.598 17.4109 10.6631 17.4244 10.7404C18.4107 16.5038 18.8195 22.929 18.6404 29.8378C18.6382 29.9263 18.7087 29.9994 18.7974 30.0021C18.8851 30.0058 18.9604 29.9343 18.9631 29.8464C19.1433 22.9167 18.7324 16.4707 17.7428 10.6871L17.7417 10.686Z" fill="black"/>
  <path d="M5.82462 18.7668L10.7258 12.4142C11.041 12.0057 11.0765 11.4479 10.814 11.0043C9.60443 8.96243 8.27493 7.17709 6.71579 5.88502C6.47484 5.68558 6.10751 5.82369 6.05857 6.13138C5.95692 6.77022 5.71974 7.92205 5.16793 9.87483C4.22513 13.2114 3.64052 16.637 5.25183 18.7674C5.39436 18.9556 5.68048 18.954 5.82462 18.7668Z" fill="black"/>
  <path d="M25.2266 10.7399C25.2266 10.7399 26.0145 11.1399 26.7572 12.4037C26.7572 12.4037 24.4645 10.9879 23.5421 11.1911C22.6197 11.3942 22.2825 14.053 21.8738 14.5937C21.8738 14.5937 22.2002 11.9195 22.303 11.0172C22.4057 10.1155 23.2635 10.3848 23.7357 10.5831C24.2079 10.7815 25.226 10.7399 25.226 10.7399H25.2266Z" fill="black"/>
  <path d="M33.3471 35.6369C33.366 35.6379 33.3848 35.6385 33.4036 35.6395C35.2021 35.7211 35.5189 34.156 35.5189 34.156C35.5296 34.7676 35.4624 35.3521 35.2892 35.7835C34.7482 36.0133 33.9672 36.1776 33.3471 35.6369Z" fill="#0027D3"/>
  <path d="M33.3477 34.2041C32.2473 34.0382 34.4814 33.2554 35.7044 32.3979V33.7487C35.7044 33.7487 34.3233 34.3513 33.3477 34.2041Z" fill="black"/>
  <path d="M31.2894 36.271C31.5363 36.3654 31.753 36.4774 31.944 36.5989C29.7701 36.6155 27.8974 37.0773 26.4114 38.1134C27.672 36.7083 29.2129 36.3435 31.2889 36.271H31.2894Z" fill="#0027D3"/>
  <path d="M32.855 37.4612C33.1869 37.9288 33.2804 38.3256 33.2804 38.3256C31.7794 37.764 30.3681 37.7875 28.9999 38.0947C30.2617 37.1364 32.0822 37.3236 32.8556 37.4612H32.855Z" fill="#0027D3"/>
  <path d="M26.4533 37.3029L26.8303 36.9472C26.8303 36.9472 26.8874 36.0375 28.9053 35.2925C32.2656 34.0527 34.0528 35.107 35.7033 33.7493C35.6657 33.7653 34.3093 34.3492 33.3477 34.2042C32.2473 34.0383 34.4814 33.256 35.7039 32.398V31.7832C35.7039 31.7832 34.8181 33.2854 32.3156 33.7232C31.4771 34.1482 29.6372 35.0137 27.9582 35.3405C26.1672 36.1479 26.4533 37.3029 26.4533 37.3029Z" fill="#0027D3"/>
  <path d="M25.8182 39.0926C25.8182 39.4514 26.1113 39.4173 26.8013 38.9982C27.4919 38.579 28.6009 38.066 28.6009 38.066L28.8708 38.1242C28.9139 38.114 28.9564 38.1044 28.9994 38.0948C30.2606 37.1366 32.0816 37.3238 32.855 37.4613C32.6517 37.1755 32.3592 36.8636 31.9445 36.5996C29.7706 36.6156 27.8979 37.0774 26.4119 38.1135C27.6726 36.7084 29.2134 36.3436 31.2894 36.2711C31.2894 36.2711 32.8351 35.9725 33.9947 36.4066C34.6524 36.6529 35.0623 36.35 35.2892 35.7837C34.7476 36.013 33.9672 36.1778 33.3471 35.6371C31.554 35.5533 29.1467 35.332 26.8303 36.9473L26.4533 37.303C26.4533 37.303 26.1672 36.1479 27.9582 35.3406C27.8554 35.3614 27.7532 35.379 27.6521 35.395C27.6166 35.4003 27.5828 35.4056 27.5489 35.4104C27.4176 35.4958 27.2966 35.5821 27.1896 35.6707C25.9644 36.6801 25.8182 38.7331 25.8182 39.0926Z" fill="black"/>
  <path d="M27.5489 35.4104C28.9203 34.5215 31.4406 33.8245 31.4406 33.8245C31.752 33.8053 32.0429 33.7701 32.3156 33.7227C31.4255 34.1743 29.4087 35.1214 27.6516 35.3944C27.6166 35.3997 27.5822 35.4051 27.5489 35.4099V35.4104Z" fill="black"/>
  <path d="M22.2583 10.686C22.2868 10.518 22.3879 10.3714 22.5348 10.2828C22.6821 10.1943 22.8607 10.1735 23.0242 10.2258C23.8497 10.4892 25.8472 11.0251 26.5684 10.3058C28.6009 8.27888 31.6783 5.13908 32.9072 3.8838C33.338 3.44386 34.0173 3.34308 34.5589 3.63956C34.9305 3.84273 35.1827 4.19682 35.2521 4.61115C35.4226 5.6366 35.8039 7.7003 36.4385 9.99756C37.4201 13.5496 38.0918 16.8045 36.3616 20.6664C36.3778 20.9879 36.495 23.2809 36.6429 25.4555C36.7365 26.834 36.6015 28.2354 36.2616 29.4021C35.8227 30.9097 35.0709 32.0076 34.0259 32.6657C33.0928 33.2533 31.8498 33.7354 30.6478 34.202C28.9521 34.86 27.3499 35.4813 26.7954 36.3062C26.178 37.2245 26.0048 38.6195 25.9575 39.2508C26.4221 38.9298 27.4322 38.2942 28.7617 37.8238C28.8456 37.794 28.9381 37.8377 28.9677 37.9209C28.9972 38.0041 28.9537 38.0958 28.8698 38.1251C27.1095 38.7485 25.8902 39.695 25.8779 39.7046C25.8488 39.7276 25.8133 39.7393 25.7778 39.7393C25.7536 39.7393 25.7289 39.734 25.7063 39.7228C25.6504 39.6956 25.6154 39.6385 25.6165 39.5772C25.6176 39.4897 25.659 37.4202 26.5265 36.1292C27.1374 35.2205 28.7853 34.5811 30.53 33.9044C31.7175 33.4437 32.9459 32.9675 33.8527 32.3964C35.9303 31.0878 36.4896 27.9645 36.3202 25.4779C36.161 23.1417 36.0379 20.6696 36.0368 20.645C36.0357 20.62 36.0406 20.5949 36.0508 20.572C37.7568 16.7918 37.0942 13.5853 36.1266 10.0829C35.4882 7.77175 35.1047 5.69579 34.9332 4.66395C34.8805 4.34666 34.6869 4.07577 34.4029 3.92006C33.9882 3.69342 33.4682 3.77021 33.1385 4.10723C31.909 5.36358 28.8305 8.50391 26.797 10.5319C25.9801 11.3467 24.0202 10.8806 22.9247 10.5308C22.8499 10.5068 22.7687 10.5164 22.7015 10.5569C22.6337 10.598 22.5891 10.6631 22.5756 10.7404C21.5893 16.5038 21.1805 22.929 21.3596 29.8378C21.3618 29.9263 21.2913 29.9994 21.2026 30.0021C21.1149 30.0058 21.0396 29.9343 21.0369 29.8464C20.8568 22.9167 21.2677 16.4707 22.2572 10.6871L22.2583 10.686Z" fill="black"/>
  <path d="M34.1754 18.7668L29.2742 12.4142C28.959 12.0057 28.9235 11.4479 29.186 11.0043C30.3956 8.96243 31.7251 7.17709 33.2842 5.88502C33.5252 5.68558 33.8925 5.82369 33.9414 6.13138C34.0431 6.77022 34.2803 7.92205 34.8321 9.87483C35.7749 13.2114 36.3595 16.637 34.7482 18.7674C34.6056 18.9556 34.3195 18.954 34.1754 18.7668Z" fill="black"/>
</svg>